<svg width="16" height="16" viewBox="0 0 16 16" fill="none" xmlns="http://www.w3.org/2000/svg">
<g clip-path="url(#clip0_874_64048)">
<path d="M6.0626 6.00016C6.21934 5.55461 6.52871 5.1789 6.93591 4.93958C7.34311 4.70027 7.82187 4.61279 8.28739 4.69264C8.75291 4.77249 9.17515 5.01451 9.47932 5.37585C9.7835 5.73718 9.94997 6.19451 9.94927 6.66683C9.94927 8.00016 7.94927 8.66683 7.94927 8.66683M8.0026 11.3335H8.00927M14.6693 8.00016C14.6693 11.6821 11.6845 14.6668 8.0026 14.6668C4.32071 14.6668 1.33594 11.6821 1.33594 8.00016C1.33594 4.31826 4.32071 1.3335 8.0026 1.3335C11.6845 1.3335 14.6693 4.31826 14.6693 8.00016Z" stroke="#98A2B3" stroke-width="1.33333" stroke-linecap="round" stroke-linejoin="round"/>
</g>
<defs>
<clipPath id="clip0_874_64048">
<rect width="16" height="16" fill="white"/>
</clipPath>
</defs>
</svg>
